{"title":"Nanny.McPhee.Duology.720p.BRRip.XviD.AC3-LEGi0N","uid":5720888,"size":6402858876,"categoryP":"video","categoryS":"hd___movies","magnet":"?xt=urn:btih:25b63f7b3bc9649172fdbb84533d01e99f6fdd72&amp;dn=Nanny.McPhee.Duology.720p.BRRip.XviD.AC3-LEGi0N&amp;tr=udp%3A%2F%2Ftracker.openbittorrent.com%3A80&amp;tr=udp%3A%2F%2Fopen.demonii.com%3A1337&amp;tr=udp%3A%2F%2Ftracker.coppersurfer.tk%3A6969&amp;tr=udp%3A%2F%2Fexodus.desync.com%3A6969","seeders":0,"leechers":1,"uploader":"TvTeam","files":5,"time":1280284922,"description":". \n  &lt;a href=&quot;\nhttp://www.torrentday.com/&quot; rel=&quot;nofollow&quot; target=&quot;_NEW&quot;&gt;\nhttp://www.torrentday.com/&lt;/a&gt;        :     The Hottest Private Tracker On The Net!!!\n\n\n               www . TorrentDay . Com \n(((((((((((((= Enjoy No RAR releases =))))))))))))))))))))\n\n\n...................................NFO:....................................\n\n.[img]http://leetleech.org/images/00481283553336211936.png[/img]\n\n[b]Nanny McPhee 2005 720p BRRip XviD AC3-LEGi0N\n\n[img]http://leetleech.org/images/48874973695367351744.png[/img]\n[color=red]General[/color]\nFormat: AVI\nFile size: 2.84 GiB\nDuration: 1h 38mn\nOverall bit rate: 4 123 Kbps\nIMDb Rating: 6.7/10   12,871 votes\nGenre: Comedy | Family | Fantasy\nRelease Date: 27 January 2006\nIMDb Link: http://www.imdb.com/title/tt0396752/\nSource: 1080p Bluray x264-CiNEFiLE\n\n[color=red]Video[/color]\nFormat: MPEG-4 Visual\nFormat profile: Streaming Video@L1\nFormat settings, BVOP: Yes\nFormat settings, QPel: No\nFormat settings, GMC: No warppoints\nFormat settings, Matrix: Default (H.263)\nMuxing mode: Packed bitstream\nCodec ID: XVID\nBit rate: 3 664 Kbps\nWidth: 1 280 pixels\nHeight: 544 pixels\nDisplay aspect ratio: 2.35\nFrame rate: 23.976 fps\nResolution: 24 bits\nColorimetry: 4:2:0\nScan type: Progressive\nBits/(Pixel*Frame): 0.219\nStream size: 2.52 GiB (89%)\n\n[color=red]Audio[/color]\nFormat: AC-3\nBit rate mode: Constant\nBit rate: 448 Kbps\nChannel(s): 6 channels\nSampling rate: 48.0 KHz\nStream size: 316 MiB (11%)\n\n[img]http://leetleech.org/images/95521316153253938506.png[/img]\n[img]http://leetleech.org/images/92445391155861707890.png[/img]\n[img]http://leetleech.org/images/95049213549930404966.png[/img]\n[img]http://leetleech.org/images/87363533449445245943.png[/img]\n\n[img]http://leetleech.org/images/26402363950398232422.jpeg[/img]\n\nNanny McPhee And The Big Bang 2010 720p BRRip XviD AC3-LEGi0N\n\n[img]http://leetleech.org/images/48874973695367351744.png[/img][b]\n[color=red]General[/color]\nFormat: AVI\nFile size: 3.13 GiB\nDuration: 1h 49mn\nOverall bit rate: 4 099 Kbps\nIMDb Rating: 6.6/10   966 votes\nGenre: Comedy | Family | Fantasy\nRelease Date: 20 August 2010\nIMDb Link: http://www.imdb.com/title/tt1415283/\nSource: 1080p Bluray x264-ALLiANCE\n\n[color=red]Video[/color]\nFormat: MPEG-4 Visual\nFormat profile: Streaming Video@L1\nFormat settings, BVOP: Yes\nFormat settings, QPel: No\nFormat settings, GMC: No warppoints\nFormat settings, Matrix: Default (H.263)\nMuxing mode: Packed bitstream\nCodec ID: XVID\nBit rate: 3 641 Kbps\nWidth: 1 280 pixels\nHeight: 536 pixels\nDisplay aspect ratio: 2.35\nFrame rate: 23.976 fps\nResolution: 24 bits\nColorimetry: 4:2:0\nScan type: Progressive\nBits/(Pixel*Frame): 0.221\nStream size: 2.78 GiB (89%)\n\n[color=red]Audio[/color]\nFormat: AC-3\nBit rate mode: Constant\nBit rate: 448 Kbps\nChannel(s): 6 channels\nSampling rate: 48.0 KHz\nStream size: 350 MiB (11%)\n\n[color=red]GREETZ[/color]\nNoir | xXTHORNXx | bigimac | LUSi |\n\nkempas | KaN1vE | mike160 | skillz |\n\nLungbuster | Sheikh | dillon1369 |\n\n0B5C3N3 | FLAWL3SS | AND ALL P2P![/b]\n\n[img]http://leetleech.org/images/95521316153253938506.png[/img]\n[img]http://leetleech.org/images/62836632425950102894.png[/img]\n[img]http://leetleech.org/images/56370207166583452802.png[/img]\n[img]http://leetleech.org/images/38247415077162044084.png[/img]","torrent":{"xt":"urn:btih:25b63f7b3bc9649172fdbb84533d01e99f6fdd72","amp;dn":"Nanny.McPhee.Duology.720p.BRRip.XviD.AC3-LEGi0N","amp;tr":["udp%3A%2F%2Ftracker.openbittorrent.com%3A80","udp%3A%2F%2Fopen.demonii.com%3A1337","udp%3A%2F%2Ftracker.coppersurfer.tk%3A6969","udp%3A%2F%2Fexodus.desync.com%3A6969"],"infoHash":"25b63f7b3bc9649172fdbb84533d01e99f6fdd72","infoHashBuffer":{"type":"Buffer","data":[37,182,63,123,59,201,100,145,114,253,187,132,83,61,1,233,159,111,221,114]},"announce":[],"urlList":[]}}